<svg width="927" height="689" viewBox="0 0 927 689" fill="none" xmlns="http://www.w3.org/2000/svg">
<path d="M833.26 636.178H771.918V636.641H833.26V636.178Z" fill="#EBEBEB"/>
<path d="M613.453 641.216H597.358V641.679H613.453V641.216Z" fill="#EBEBEB"/>
<path d="M770.066 618.991H734.524V619.454H770.066V618.991Z" fill="#EBEBEB"/>
<path d="M177.153 622.102H97.1611V622.565H177.153V622.102Z" fill="#EBEBEB"/>
<path d="M205.379 622.102H193.656V622.565H205.379V622.102Z" fill="#EBEBEB"/>
<path d="M417 629.918H243.496V630.381H417V629.918Z" fill="#EBEBEB"/>
<path d="M441.541 523.774H83.9002C81.0954 523.774 78.4055 522.66 76.4222 520.677C74.4389 518.693 73.3247 516.003 73.3247 513.199V10.4829C73.3491 7.69417 74.4741 5.02799 76.4547 3.06468C78.4354 1.10137 81.1114 -0.000106914 83.9002 7.78354e-09H441.541C442.93 7.78356e-09 444.305 0.273541 445.588 0.805009C446.871 1.33648 448.037 2.11547 449.019 3.09749C450.001 4.07952 450.78 5.24535 451.311 6.52843C451.843 7.81151 452.116 9.1867 452.116 10.5755V513.199C452.116 514.587 451.843 515.963 451.311 517.246C450.78 518.529 450.001 519.695 449.019 520.677C448.037 521.659 446.871 522.438 445.588 522.969C444.305 523.501 442.93 523.774 441.541 523.774ZM83.9002 0.370422C81.2197 0.375317 78.6504 1.44231 76.755 3.3377C74.8596 5.2331 73.7926 7.8024 73.7877 10.4829V513.199C73.7926 515.879 74.8596 518.448 76.755 520.344C78.6504 522.239 81.2197 523.306 83.9002 523.311H441.541C444.221 523.306 446.791 522.239 448.686 520.344C450.581 518.448 451.648 515.879 451.653 513.199V10.4829C451.648 7.8024 450.581 5.2331 448.686 3.3377C446.791 1.44231 444.221 0.375317 441.541 0.370422H83.9002Z" fill="#EBEBEB"/>
<path d="M842.15 523.774H484.51C481.705 523.774 479.015 522.66 477.032 520.677C475.048 518.693 473.934 516.003 473.934 513.199V10.4829C473.959 7.69417 475.083 5.02799 477.064 3.06468C479.045 1.10137 481.721 -0.000106914 484.51 7.78354e-09H842.15C844.955 7.78357e-09 847.645 1.1142 849.628 3.09749C851.611 5.08078 852.726 7.7707 852.726 10.5755V513.199C852.726 516.003 851.611 518.693 849.628 520.677C847.645 522.66 844.955 523.774 842.15 523.774ZM484.51 0.370422C481.829 0.375317 479.26 1.44231 477.364 3.3377C475.469 5.2331 474.402 7.8024 474.397 10.4829V513.199C474.402 515.879 475.469 518.448 477.364 520.344C479.26 522.239 481.829 523.306 484.51 523.311H842.15C844.831 523.306 847.4 522.239 849.295 520.344C851.191 518.448 852.258 515.879 852.263 513.199V10.4829C852.258 7.8024 851.191 5.2331 849.295 3.3377C847.4 1.44231 844.831 0.375317 842.15 0.370422H484.51Z" fill="#EBEBEB"/>
<path d="M926.05 606.378H0V606.841H926.05V606.378Z" fill="#EBEBEB"/>
<path d="M221.011 481.083C219.455 463.192 201.194 456.506 179.543 458.395C157.892 460.284 141.093 470.045 142.612 487.936L221.011 481.083Z" fill="#F0F0F0"/>
<path d="M178.839 450.227C188.877 449.338 192.081 440.855 191.211 430.817C190.34 420.779 185.655 412.981 175.653 413.852C165.652 414.722 162.411 423.223 163.281 433.262C164.152 443.3 168.8 451.098 178.839 450.227Z" fill="#F0F0F0"/>
<path d="M629.9 100.013C630.075 101.999 629.658 103.992 628.701 105.741C627.743 107.489 626.289 108.914 624.521 109.836C622.754 110.757 620.752 111.134 618.771 110.918C616.789 110.701 614.916 109.902 613.389 108.621C611.862 107.34 610.749 105.635 610.191 103.721C609.633 101.808 609.655 99.7714 610.255 97.8704C610.855 95.9693 612.005 94.2889 613.56 93.0418C615.115 91.7946 617.005 91.0367 618.991 90.8641C621.65 90.6328 624.293 91.4665 626.338 93.1819C628.383 94.8974 629.664 97.3544 629.9 100.013Z" fill="#F5F5F5"/>
<path d="M685.592 95.0868C685.764 97.0684 685.344 99.0564 684.386 100.8C683.429 102.543 681.975 103.963 680.211 104.88C678.446 105.797 676.448 106.171 674.471 105.953C672.494 105.735 670.626 104.936 669.103 103.657C667.58 102.377 666.471 100.675 665.916 98.765C665.36 96.8552 665.384 94.8235 665.983 92.9269C666.582 91.0303 667.73 89.3539 669.282 88.1098C670.834 86.8657 672.72 86.1097 674.701 85.9374C677.358 85.7114 679.995 86.5474 682.037 88.2623C684.078 89.9772 685.356 92.4312 685.592 95.0868Z" fill="#F5F5F5"/>
<path d="M741.304 90.2158C741.479 92.2014 741.062 94.1945 740.105 95.943C739.147 97.6914 737.693 99.1166 735.925 100.038C734.158 100.96 732.156 101.336 730.175 101.12C728.193 100.904 726.32 100.105 724.793 98.8237C723.265 97.5427 722.152 95.8374 721.594 93.9237C721.037 92.01 721.059 89.9738 721.659 88.0727C722.258 86.1717 723.409 84.4913 724.964 83.2441C726.519 81.9969 728.409 81.239 730.395 81.0664C733.054 80.8352 735.697 81.6688 737.742 83.3843C739.787 85.0997 741.068 87.5567 741.304 90.2158Z" fill="#F5F5F5"/>
<path d="M634.863 156.725C635.039 158.71 634.622 160.704 633.664 162.452C632.707 164.2 631.252 165.626 629.485 166.547C627.717 167.469 625.716 167.845 623.734 167.629C621.753 167.413 619.88 166.614 618.352 165.333C616.825 164.052 615.712 162.346 615.154 160.433C614.596 158.519 614.619 156.483 615.218 154.582C615.818 152.681 616.968 151 618.523 149.753C620.078 148.506 621.968 147.748 623.954 147.575C626.614 147.344 629.256 148.178 631.302 149.893C633.347 151.609 634.628 154.066 634.863 156.725Z" fill="#F5F5F5"/>
<path d="M690.556 151.872C690.728 153.854 690.308 155.842 689.35 157.585C688.393 159.328 686.939 160.748 685.174 161.666C683.41 162.583 681.412 162.956 679.435 162.738C677.458 162.521 675.59 161.722 674.067 160.442C672.544 159.163 671.435 157.46 670.88 155.55C670.324 153.641 670.348 151.609 670.947 149.712C671.546 147.816 672.694 146.139 674.246 144.895C675.798 143.651 677.684 142.895 679.665 142.723C680.981 142.608 682.307 142.754 683.566 143.152C684.826 143.55 685.994 144.192 687.006 145.042C688.017 145.891 688.851 146.932 689.46 148.104C690.069 149.276 690.441 150.556 690.556 151.872Z" fill="#F5F5F5"/>
<path d="M746.267 146.983C746.443 148.968 746.025 150.961 745.068 152.71C744.111 154.458 742.656 155.883 740.889 156.805C739.121 157.727 737.12 158.103 735.138 157.887C733.156 157.671 731.283 156.872 729.756 155.591C728.229 154.31 727.116 152.604 726.558 150.691C726 148.777 726.022 146.741 726.622 144.84C727.222 142.939 728.372 141.258 729.927 140.011C731.482 138.764 733.372 138.006 735.358 137.833C738.017 137.602 740.66 138.436 742.705 140.151C744.751 141.867 746.032 144.324 746.267 146.983Z" fill="#F5F5F5"/>
<path d="M639.827 213.51C639.999 215.492 639.579 217.48 638.621 219.223C637.664 220.966 636.21 222.386 634.445 223.303C632.681 224.221 630.683 224.594 628.706 224.376C626.729 224.158 624.861 223.359 623.338 222.08C621.815 220.8 620.706 219.098 620.151 217.188C619.595 215.278 619.618 213.247 620.218 211.35C620.817 209.453 621.965 207.777 623.517 206.533C625.069 205.289 626.955 204.533 628.936 204.361C630.253 204.244 631.579 204.388 632.84 204.785C634.1 205.182 635.27 205.824 636.281 206.674C637.293 207.524 638.127 208.565 638.736 209.738C639.344 210.912 639.715 212.193 639.827 213.51Z" fill="#F5F5F5"/>
<path d="M695.538 208.621C695.714 210.606 695.296 212.599 694.339 214.348C693.382 216.096 691.927 217.521 690.159 218.443C688.392 219.364 686.391 219.741 684.409 219.525C682.427 219.309 680.554 218.51 679.027 217.229C677.5 215.948 676.387 214.242 675.829 212.329C675.271 210.415 675.293 208.379 675.893 206.478C676.493 204.577 677.643 202.896 679.198 201.649C680.753 200.402 682.643 199.644 684.629 199.471C687.288 199.24 689.931 200.074 691.976 201.789C694.022 203.505 695.303 205.962 695.538 208.621Z" fill="#F5F5F5"/>
<path d="M751.231 203.731C751.406 205.717 750.989 207.71 750.032 209.458C749.074 211.207 747.62 212.632 745.852 213.554C744.085 214.475 742.084 214.852 740.102 214.635C738.12 214.419 736.247 213.62 734.72 212.339C733.193 211.058 732.08 209.353 731.522 207.439C730.964 205.525 730.986 203.489 731.586 201.588C732.186 199.687 733.336 198.007 734.891 196.76C736.446 195.512 738.336 194.754 740.322 194.582C742.981 194.351 745.624 195.184 747.669 196.9C749.714 198.615 750.995 201.072 751.231 203.731Z" fill="#F5F5F5"/>
<path d="M739.192 207.028L624.769 217.029L726.227 93.7534L622.306 102.847C622.016 102.875 621.723 102.845 621.445 102.758C621.167 102.671 620.909 102.529 620.686 102.341C620.463 102.153 620.281 101.922 620.149 101.663C620.016 101.403 619.938 101.119 619.917 100.828C619.865 100.246 620.047 99.6677 620.422 99.2197C620.797 98.7717 621.335 98.491 621.917 98.4392L736.358 88.4379L634.882 211.714L738.84 202.62C739.426 202.573 740.007 202.759 740.457 203.137C740.907 203.514 741.191 204.054 741.248 204.639C741.271 204.931 741.235 205.224 741.144 205.503C741.053 205.781 740.908 206.039 740.717 206.261C740.526 206.483 740.293 206.665 740.031 206.797C739.769 206.928 739.484 207.007 739.192 207.028Z" fill="#E6E6E6"/>
<path d="M740.951 427.113C740.775 426.574 740.444 426.098 739.999 425.746C739.555 425.393 739.016 425.18 738.451 425.131C733.476 424.902 728.765 422.821 725.245 419.297C720.671 414.685 717.985 407.703 717.541 399.405C717.498 398.657 717.172 397.953 716.628 397.436C716.084 396.92 715.364 396.631 714.614 396.627C714.209 396.629 713.809 396.713 713.437 396.874C713.065 397.036 712.729 397.27 712.451 397.565C712.172 397.859 711.956 398.206 711.815 398.586C711.675 398.967 711.613 399.371 711.633 399.776C712.151 409.518 715.448 417.852 721.06 423.464C725.454 427.866 731.285 430.541 737.488 431.002H737.914C738.401 431.039 738.889 430.956 739.336 430.758C739.783 430.561 740.174 430.256 740.475 429.871C740.775 429.487 740.976 429.033 741.059 428.552C741.142 428.071 741.105 427.576 740.951 427.113Z" fill="#F0F0F0"/>
<path d="M735.025 462.655C710.484 460.506 692.778 443.782 687.185 417.667C687.096 417.275 687.087 416.869 687.159 416.473C687.231 416.078 687.382 415.701 687.604 415.365C687.825 415.029 688.112 414.742 688.448 414.52C688.783 414.298 689.16 414.147 689.555 414.074C690.305 413.941 691.077 414.101 691.712 414.522C692.346 414.943 692.794 415.591 692.963 416.334C697.983 439.8 713.725 454.839 735.562 456.746C759.491 458.839 785.179 443.097 789.791 403.425C789.871 402.651 790.252 401.94 790.851 401.444C791.45 400.949 792.221 400.709 792.995 400.776C793.388 400.808 793.77 400.919 794.119 401.101C794.468 401.284 794.776 401.534 795.027 401.838C795.277 402.142 795.464 402.493 795.576 402.871C795.689 403.248 795.724 403.644 795.681 404.036C791.254 441.448 766.658 465.414 735.025 462.655Z" fill="#F0F0F0"/>
<path d="M688.722 391.645C688.33 391.613 687.948 391.502 687.599 391.32C687.25 391.137 686.941 390.887 686.691 390.583C686.44 390.279 686.253 389.928 686.141 389.55C686.029 389.173 685.993 388.777 686.037 388.385C690.445 350.973 715.04 326.988 746.656 329.766C774.437 332.193 793.051 352.936 795.959 384.181C795.989 384.573 795.941 384.968 795.817 385.341C795.693 385.715 795.496 386.06 795.237 386.356C794.979 386.653 794.664 386.895 794.311 387.068C793.957 387.242 793.573 387.343 793.181 387.367C792.408 387.403 791.651 387.137 791.07 386.626C790.49 386.114 790.131 385.397 790.069 384.626C787.383 356.474 770.77 337.823 746.156 335.675C722.319 333.582 696.519 349.306 691.926 388.941C691.894 389.329 691.785 389.707 691.606 390.053C691.427 390.399 691.182 390.706 690.884 390.957C690.587 391.208 690.243 391.398 689.872 391.516C689.501 391.634 689.11 391.678 688.722 391.645Z" fill="#F0F0F0"/>
<path d="M736.229 446.782C731.829 446.429 727.517 445.353 723.468 443.597C723.09 443.431 722.751 443.189 722.472 442.886C722.192 442.583 721.979 442.225 721.845 441.835C721.711 441.445 721.659 441.032 721.693 440.621C721.727 440.21 721.846 439.811 722.042 439.448C722.389 438.811 722.96 438.326 723.644 438.087C724.329 437.847 725.078 437.87 725.746 438.151C729.607 439.81 733.735 440.763 737.933 440.967C756.065 442.004 775.215 429.15 777.105 398.109C778.253 378.977 771.696 363.53 759.473 356.14C758.84 355.758 758.373 355.152 758.164 354.443C757.955 353.733 758.019 352.971 758.343 352.307C758.527 351.939 758.785 351.613 759.1 351.35C759.415 351.086 759.781 350.89 760.176 350.774C760.57 350.657 760.984 350.623 761.392 350.673C761.8 350.724 762.193 350.857 762.547 351.066C776.716 359.622 784.309 376.995 783.013 398.461C781.161 428.391 762.529 448.319 737.581 446.893L736.229 446.782Z" fill="#F0F0F0"/>
<path d="M709.855 428.317C709.514 428.548 709.129 428.706 708.724 428.781C708.319 428.857 707.903 428.848 707.502 428.756C707.101 428.664 706.723 428.491 706.391 428.246C706.06 428.002 705.783 427.692 705.576 427.335C700.086 417.128 697.674 405.548 698.631 393.997C700.372 365.345 717.541 345.843 740.859 345.509C741.27 345.501 741.677 345.578 742.057 345.734C742.437 345.891 742.78 346.125 743.065 346.42C743.35 346.716 743.571 347.067 743.714 347.452C743.857 347.837 743.919 348.248 743.896 348.658C743.85 349.399 743.528 350.095 742.993 350.61C742.458 351.124 741.749 351.419 741.007 351.436C723.708 351.769 706.336 364.845 704.558 394.349C703.659 404.775 705.808 415.237 710.744 424.464C711.115 425.105 711.23 425.862 711.065 426.584C710.9 427.306 710.467 427.938 709.855 428.354V428.317Z" fill="#F0F0F0"/>
<path d="M750.342 425.983C750.061 425.324 750.028 424.586 750.25 423.905C750.471 423.224 750.931 422.647 751.546 422.279C759.343 417.593 764.121 407.758 764.195 395.886C764.195 386.385 761.51 378.347 756.435 373.254C754.464 371.301 752.116 369.771 749.533 368.759C746.95 367.746 744.187 367.271 741.415 367.364C732.284 367.364 724.875 372.383 720.782 381.199C720.467 381.869 719.91 382.396 719.224 382.674C718.537 382.952 717.771 382.961 717.078 382.699C716.692 382.556 716.339 382.335 716.043 382.049C715.746 381.762 715.512 381.418 715.356 381.037C715.199 380.656 715.123 380.246 715.133 379.834C715.142 379.422 715.237 379.017 715.411 378.643C720.486 367.846 729.987 361.456 741.34 361.437C744.897 361.346 748.435 361.974 751.742 363.286C755.049 364.597 758.057 366.564 760.584 369.068C766.788 375.291 770.159 384.829 770.085 395.942C769.974 409.925 764.084 421.668 754.49 427.428C754.127 427.626 753.726 427.746 753.314 427.78C752.902 427.814 752.487 427.762 752.096 427.625C751.705 427.489 751.347 427.273 751.045 426.99C750.743 426.707 750.503 426.364 750.342 425.983Z" fill="#F0F0F0"/>
<path d="M729.005 404.11C728.609 404.271 728.184 404.345 727.757 404.326C727.33 404.307 726.912 404.197 726.532 404.001C726.152 403.806 725.819 403.531 725.555 403.195C725.292 402.859 725.104 402.47 725.005 402.054C724.801 401.258 724.653 400.424 724.523 399.572C722.838 388.46 728.801 378.847 738.377 377.125C740.606 376.64 742.918 376.684 745.128 377.253C747.337 377.822 749.383 378.901 751.101 380.403C751.423 380.69 751.676 381.045 751.842 381.443C752.008 381.841 752.082 382.271 752.059 382.702C752.036 383.133 751.916 383.553 751.709 383.93C751.501 384.308 751.211 384.635 750.86 384.885L750.675 385.015C750.119 385.401 749.448 385.584 748.773 385.534C748.099 385.483 747.462 385.202 746.97 384.737C745.932 383.86 744.703 383.236 743.382 382.915C742.061 382.593 740.684 382.583 739.358 382.885C732.061 384.2 729.283 391.793 730.32 398.609C730.431 399.276 730.542 399.924 730.709 400.461C730.888 401.159 730.808 401.898 730.485 402.541C730.161 403.184 729.616 403.689 728.949 403.962L729.005 404.11Z" fill="#F0F0F0"/>
<path d="M738.803 415.519C738.336 415.473 737.889 415.309 737.503 415.042C737.117 414.775 736.805 414.414 736.597 413.993C736.39 413.572 736.293 413.106 736.316 412.637C736.339 412.168 736.481 411.713 736.729 411.314L736.988 410.907C737.254 410.483 737.631 410.139 738.078 409.914C738.526 409.688 739.026 409.59 739.526 409.629C740.455 409.682 741.387 409.626 742.304 409.462C748.675 408.314 751.564 402.387 751.564 396.35C751.546 395.624 751.791 394.917 752.254 394.358C752.717 393.8 753.367 393.428 754.083 393.312C754.494 393.249 754.914 393.274 755.315 393.384C755.716 393.494 756.089 393.687 756.411 393.951C756.732 394.215 756.994 394.543 757.18 394.915C757.367 395.287 757.472 395.693 757.491 396.109C757.658 405.777 751.935 413.759 743.359 415.297C741.858 415.574 740.325 415.649 738.803 415.519Z" fill="#F0F0F0"/>
<path d="M740.118 404.573C738.622 404.447 737.203 403.856 736.061 402.883C734.918 401.91 734.109 400.603 733.747 399.146C733.642 398.735 733.637 398.305 733.732 397.892C733.827 397.479 734.02 397.094 734.293 396.77C734.566 396.446 734.913 396.192 735.305 396.028C735.696 395.865 736.121 395.797 736.543 395.831H737.229C737.747 395.885 738.239 396.089 738.643 396.418C739.048 396.747 739.348 397.187 739.507 397.683C739.571 397.941 739.715 398.173 739.917 398.346C740.12 398.518 740.371 398.623 740.636 398.646C742.063 398.776 742.303 396.794 742.34 396.313C742.426 395.592 742.291 394.862 741.951 394.22C741.44 393.602 741.176 392.817 741.211 392.016C741.258 391.427 741.479 390.866 741.847 390.404C742.215 389.943 742.712 389.602 743.276 389.424C743.839 389.247 744.442 389.242 745.008 389.41C745.574 389.578 746.077 389.912 746.452 390.367C747.897 392.194 748.563 394.517 748.304 396.831C747.823 401.702 744.396 404.943 740.118 404.573Z" fill="#F0F0F0"/>
<path d="M684.407 338.286C684.02 338.253 683.643 338.145 683.298 337.966C682.953 337.787 682.647 337.541 682.397 337.243C682.147 336.945 681.959 336.601 681.843 336.23C681.727 335.859 681.686 335.469 681.721 335.082L683.962 309.393L709.651 311.653C710.038 311.685 710.415 311.794 710.76 311.973C711.105 312.152 711.411 312.398 711.661 312.696C711.911 312.994 712.099 313.338 712.215 313.709C712.331 314.08 712.372 314.47 712.337 314.857C712.304 315.245 712.195 315.623 712.016 315.969C711.838 316.315 711.593 316.622 711.295 316.873C710.997 317.124 710.653 317.314 710.282 317.432C709.911 317.55 709.52 317.594 709.132 317.561L689.352 315.82L687.63 335.601C687.595 335.989 687.484 336.366 687.303 336.711C687.122 337.056 686.875 337.362 686.575 337.612C686.276 337.861 685.93 338.049 685.558 338.165C685.186 338.281 684.795 338.322 684.407 338.286Z" fill="#F0F0F0"/>
<path d="M806.516 348.973C806.128 348.94 805.751 348.831 805.406 348.652C805.061 348.473 804.755 348.228 804.506 347.93C804.256 347.632 804.068 347.288 803.952 346.917C803.836 346.546 803.795 346.156 803.83 345.769L805.553 325.988L785.772 324.266C785.384 324.231 785.007 324.12 784.662 323.939C784.317 323.758 784.011 323.511 783.761 323.211C783.512 322.912 783.324 322.567 783.208 322.194C783.092 321.822 783.051 321.431 783.087 321.043C783.119 320.656 783.228 320.279 783.407 319.934C783.586 319.589 783.832 319.283 784.129 319.033C784.427 318.783 784.772 318.595 785.143 318.479C785.514 318.363 785.904 318.322 786.291 318.358L811.979 320.599L809.738 346.343C809.654 347.117 809.269 347.826 808.666 348.318C808.063 348.81 807.291 349.045 806.516 348.973Z" fill="#F0F0F0"/>
<path d="M797.422 487.102L771.733 484.861C771.345 484.826 770.968 484.715 770.623 484.534C770.277 484.353 769.971 484.106 769.722 483.807C769.473 483.508 769.285 483.162 769.169 482.79C769.053 482.418 769.012 482.027 769.048 481.639C769.08 481.251 769.189 480.874 769.368 480.529C769.547 480.184 769.793 479.878 770.09 479.629C770.388 479.379 770.733 479.191 771.104 479.075C771.474 478.959 771.865 478.918 772.252 478.953L792.032 480.676L793.755 460.914C793.787 460.524 793.897 460.145 794.077 459.797C794.256 459.45 794.503 459.142 794.803 458.891C795.102 458.639 795.449 458.45 795.822 458.333C796.195 458.216 796.588 458.174 796.977 458.21C797.365 458.242 797.742 458.351 798.086 458.53C798.431 458.709 798.738 458.955 798.987 459.252C799.237 459.55 799.425 459.895 799.541 460.266C799.657 460.637 799.698 461.027 799.663 461.414L797.422 487.102Z" fill="#F0F0F0"/>
<path d="M695.093 478.101L669.405 475.842L671.646 450.172C671.721 449.388 672.101 448.666 672.704 448.16C673.307 447.654 674.084 447.406 674.869 447.468C675.257 447.502 675.634 447.614 675.979 447.794C676.324 447.975 676.63 448.223 676.88 448.522C677.129 448.821 677.317 449.167 677.433 449.539C677.549 449.911 677.59 450.302 677.554 450.69L675.832 470.434L695.594 472.175C695.982 472.207 696.359 472.316 696.705 472.495C697.051 472.674 697.358 472.919 697.61 473.216C697.861 473.514 698.051 473.858 698.169 474.229C698.287 474.6 698.331 474.991 698.298 475.379C698.231 476.164 697.857 476.891 697.257 477.401C696.657 477.911 695.879 478.163 695.093 478.101Z" fill="#F0F0F0"/>
<path d="M138.407 422.52C137.925 422.556 137.447 422.402 137.077 422.09C136.706 421.779 136.473 421.335 136.426 420.853L135.055 405.073L150.835 403.684C151.318 403.648 151.795 403.802 152.166 404.113C152.536 404.425 152.77 404.869 152.817 405.351C152.848 405.83 152.692 406.303 152.38 406.67C152.069 407.036 151.628 407.267 151.15 407.314L139 408.388L140.056 420.538C140.092 421.018 139.941 421.493 139.633 421.863C139.325 422.233 138.886 422.468 138.407 422.52Z" fill="#E0E0E0"/>
<path d="M213.492 415.945C213.012 415.981 212.537 415.83 212.167 415.522C211.797 415.214 211.561 414.775 211.51 414.296L210.454 402.128L198.286 403.202C197.803 403.239 197.326 403.084 196.955 402.773C196.585 402.461 196.351 402.017 196.304 401.535C196.268 401.053 196.422 400.575 196.734 400.205C197.045 399.835 197.489 399.601 197.971 399.554L213.751 398.183L215.14 413.963C215.176 414.443 215.025 414.918 214.717 415.288C214.409 415.658 213.97 415.893 213.492 415.945Z" fill="#E0E0E0"/>
<path d="M221.27 483.935L205.472 485.324C204.989 485.361 204.512 485.206 204.141 484.895C203.771 484.583 203.537 484.139 203.49 483.657C203.454 483.175 203.608 482.697 203.92 482.327C204.231 481.956 204.675 481.723 205.157 481.676L217.307 480.62L216.251 468.47C216.215 467.991 216.366 467.515 216.674 467.146C216.982 466.776 217.421 466.54 217.9 466.488C218.379 466.452 218.854 466.604 219.224 466.911C219.594 467.219 219.83 467.659 219.881 468.137L221.27 483.935Z" fill="#E0E0E0"/>
<path d="M158.336 489.436L142.612 490.807L141.223 475.008C141.192 474.529 141.348 474.056 141.659 473.689C141.97 473.323 142.411 473.092 142.89 473.045C143.366 473.014 143.837 473.168 144.202 473.475C144.568 473.782 144.801 474.218 144.853 474.693L145.927 486.862L158.077 485.787C158.559 485.751 159.037 485.905 159.407 486.217C159.778 486.529 160.011 486.973 160.059 487.454C160.076 487.698 160.046 487.942 159.968 488.174C159.891 488.405 159.769 488.619 159.609 488.803C159.449 488.987 159.254 489.138 159.036 489.247C158.817 489.355 158.579 489.42 158.336 489.436Z" fill="#E0E0E0"/>
<path d="M212.214 159.281L151.872 164.467L150.631 150.335C150.541 143.591 153.004 137.061 157.526 132.057C162.048 127.053 168.296 123.943 175.015 123.353C181.734 122.762 188.428 124.734 193.754 128.873C199.08 133.011 202.644 139.011 203.731 145.668L204.435 153.891L213.158 153.132L212.436 144.908C212.03 140.27 210.714 135.757 208.564 131.628C206.414 127.498 203.471 123.832 199.904 120.84C196.337 117.847 192.216 115.586 187.775 114.187C183.335 112.787 178.662 112.276 174.023 112.682C164.656 113.502 155.998 118.01 149.955 125.214C146.962 128.781 144.702 132.902 143.302 137.343C141.902 141.783 141.391 146.456 141.797 151.094L143.038 165.319C139.602 165.991 136.536 167.91 134.43 170.707C132.324 173.504 131.326 176.981 131.629 180.469L135.944 229.809C136.098 231.671 136.618 233.484 137.475 235.145C138.332 236.806 139.508 238.28 140.937 239.485C142.365 240.69 144.017 241.6 145.799 242.165C147.58 242.729 149.455 242.936 151.317 242.773L218.974 236.865C220.836 236.711 222.65 236.191 224.31 235.334C225.971 234.478 227.446 233.301 228.65 231.873C229.855 230.444 230.766 228.792 231.33 227.011C231.894 225.23 232.101 223.354 231.939 221.493L227.623 172.153C227.458 170.295 226.928 168.489 226.064 166.836C225.2 165.184 224.018 163.718 222.587 162.522C221.156 161.326 219.503 160.425 217.723 159.869C215.943 159.312 214.071 159.113 212.214 159.281ZM186.544 197.304L188.025 214.288C188.125 214.972 188.084 215.668 187.905 216.336C187.726 217.003 187.413 217.626 186.984 218.168C186.556 218.71 186.021 219.159 185.414 219.487C184.806 219.815 184.137 220.015 183.449 220.076C182.761 220.136 182.068 220.056 181.412 219.839C180.756 219.623 180.151 219.274 179.634 218.816C179.118 218.357 178.7 217.798 178.408 217.172C178.115 216.546 177.953 215.868 177.931 215.177L176.45 198.175C174.922 197.237 173.729 195.84 173.041 194.184C172.353 192.529 172.205 190.698 172.617 188.953C173.03 187.208 173.983 185.638 175.34 184.466C176.697 183.295 178.39 182.581 180.176 182.427C181.963 182.273 183.752 182.686 185.29 183.608C186.827 184.53 188.035 185.914 188.741 187.563C189.446 189.211 189.614 191.04 189.219 192.789C188.825 194.538 187.888 196.118 186.544 197.304Z" fill="#EBEBEB"/>
<path d="M315.672 187.785L309.579 177.802C306.507 178.239 303.389 178.239 300.318 177.802L294.206 187.747L293.039 187.433C289.079 186.389 285.278 184.813 281.742 182.747L280.704 182.154L283.279 171.338C283.329 171.128 283.42 170.93 283.547 170.756C283.674 170.581 283.834 170.434 284.018 170.322C284.203 170.21 284.407 170.136 284.621 170.103C284.834 170.071 285.051 170.082 285.261 170.134C285.68 170.235 286.043 170.499 286.269 170.867C286.494 171.235 286.565 171.677 286.464 172.097L284.427 180.524C287.059 181.958 289.834 183.113 292.706 183.969L298.67 174.227L299.763 174.412C303.222 174.968 306.749 174.968 310.208 174.412L311.283 174.227L317.246 183.969C320.121 183.119 322.896 181.965 325.525 180.524L322.877 169.412L323.766 168.763C326.178 167.023 328.341 164.961 330.193 162.633C330.45 162.298 330.828 162.075 331.246 162.013C331.664 161.951 332.09 162.054 332.434 162.3C332.614 162.425 332.766 162.585 332.882 162.771C332.998 162.957 333.075 163.165 333.108 163.381C333.141 163.598 333.129 163.819 333.074 164.031C333.018 164.243 332.92 164.442 332.785 164.615C330.966 166.913 328.869 168.978 326.544 170.764L329.266 182.117L328.211 182.71C324.679 184.772 320.885 186.349 316.931 187.396L315.672 187.785ZM278.223 166.041C277.723 165.467 277.222 164.856 276.741 164.189L265.388 166.911L264.776 165.874C262.726 162.33 261.15 158.532 260.091 154.576L259.794 153.41L269.74 147.298C269.303 144.226 269.303 141.108 269.74 138.037L259.794 131.944L260.091 130.758C261.15 126.809 262.726 123.017 264.776 119.479L265.388 118.423L276.741 121.146C278.637 118.665 280.854 116.448 283.334 114.552L281.279 105.959C281.178 105.539 281.249 105.096 281.474 104.728C281.7 104.36 282.063 104.097 282.482 103.995C282.689 103.946 282.904 103.938 283.114 103.972C283.323 104.006 283.525 104.081 283.705 104.193C283.886 104.304 284.043 104.451 284.167 104.624C284.291 104.797 284.379 104.992 284.427 105.199L287.002 115.904L286.113 116.534C283.259 118.587 280.757 121.089 278.704 123.943L278.056 124.832L266.943 122.183C265.503 124.812 264.348 127.587 263.498 130.462L273.222 136.426L273.055 137.5C272.437 140.954 272.437 144.491 273.055 147.946L273.222 149.039L263.498 155.002C264.351 157.87 265.506 160.639 266.943 163.263L278.056 160.614L278.704 161.503C279.28 162.343 279.898 163.153 280.556 163.929C280.842 164.229 281.001 164.627 281.001 165.041C281.001 165.454 280.842 165.852 280.556 166.152C280.398 166.303 280.211 166.42 280.007 166.497C279.802 166.574 279.584 166.608 279.366 166.597C279.147 166.587 278.933 166.532 278.737 166.437C278.54 166.341 278.365 166.206 278.223 166.041ZM344.417 166.948L340.231 165.948C339.811 165.847 339.449 165.584 339.223 165.216C338.997 164.848 338.927 164.405 339.027 163.985C339.128 163.565 339.392 163.203 339.76 162.977C340.128 162.751 340.57 162.681 340.99 162.781L342.842 163.207C344.273 160.583 345.422 157.814 346.269 154.947L336.545 148.983L336.73 147.89C337.349 144.436 337.349 140.899 336.73 137.444L336.545 136.37L346.269 130.406C345.425 127.532 344.277 124.757 342.842 122.128L331.73 124.776L331.1 123.887C329.042 121.038 326.541 118.537 323.692 116.479L322.803 115.849L325.451 104.736C322.822 103.302 320.046 102.153 317.172 101.31L311.153 111.126L310.079 110.941C306.619 110.385 303.093 110.385 299.633 110.941L298.54 111.126L292.632 101.347L291.521 101.68C291.125 101.811 290.694 101.781 290.32 101.598C289.946 101.414 289.659 101.091 289.52 100.699C289.444 100.496 289.409 100.28 289.417 100.063C289.425 99.8463 289.476 99.6334 289.568 99.4368C289.659 99.2402 289.789 99.0638 289.949 98.9179C290.11 98.772 290.298 98.6597 290.502 98.5874C291.317 98.3281 292.15 98.0873 292.965 97.865L294.132 97.5502L300.244 107.514C303.314 107.058 306.435 107.058 309.505 107.514L315.598 97.5502L316.783 97.865C320.734 98.92 324.527 100.496 328.063 102.551L329.118 103.162L326.396 114.515C328.88 116.407 331.098 118.625 332.989 121.109L344.343 118.386L344.954 119.442C347.012 122.976 348.588 126.769 349.64 130.721L349.954 131.907L339.99 138C340.452 141.07 340.452 144.191 339.99 147.261L349.954 153.372L349.64 154.539C348.588 158.497 347.012 162.297 344.954 165.837L344.417 166.948ZM304.448 158.54C300.413 158.38 296.585 156.705 293.729 153.849C290.874 150.993 289.199 147.166 289.039 143.13C288.929 139.161 290.309 135.294 292.907 132.291C295.505 129.288 299.134 127.367 303.078 126.906C303.309 126.877 303.544 126.898 303.767 126.966C303.99 127.035 304.195 127.15 304.37 127.304C304.546 127.458 304.686 127.648 304.782 127.86C304.879 128.072 304.929 128.303 304.93 128.536C304.928 128.93 304.782 129.309 304.519 129.603C304.256 129.896 303.895 130.083 303.504 130.129C300.759 130.442 298.193 131.647 296.2 133.56C294.207 135.472 292.897 137.986 292.471 140.715C292.045 143.445 292.527 146.238 293.842 148.667C295.158 151.096 297.235 153.026 299.753 154.16C302.272 155.295 305.093 155.571 307.784 154.947C310.475 154.322 312.886 152.831 314.648 150.704C316.41 148.576 317.424 145.929 317.535 143.169C317.647 140.409 316.849 137.688 315.265 135.426C315.036 135.105 314.936 134.71 314.984 134.32C315.032 133.929 315.224 133.57 315.524 133.314C315.697 133.161 315.9 133.046 316.121 132.977C316.342 132.908 316.574 132.887 316.804 132.915C317.033 132.943 317.254 133.019 317.452 133.139C317.649 133.259 317.819 133.42 317.95 133.611C319.635 136.021 320.616 138.852 320.784 141.788C320.952 144.724 320.3 147.649 318.901 150.236C317.502 152.822 315.411 154.969 312.862 156.435C310.313 157.902 307.406 158.631 304.467 158.54H304.448Z" fill="#F0F0F0"/>
<path d="M200.601 323.358L196.656 316.931C194.661 317.228 192.632 317.228 190.637 316.931L186.692 323.358L185.932 323.154C183.376 322.48 180.921 321.465 178.635 320.136L177.968 319.747L179.635 312.746C179.701 312.477 179.87 312.245 180.106 312.099C180.341 311.954 180.625 311.906 180.895 311.968C181.03 312 181.157 312.059 181.27 312.141C181.382 312.223 181.477 312.326 181.549 312.445C181.621 312.564 181.67 312.696 181.691 312.833C181.712 312.971 181.706 313.111 181.673 313.246L180.376 318.691C182.075 319.622 183.87 320.367 185.729 320.913L189.581 314.635L190.266 314.746C192.505 315.116 194.788 315.116 197.027 314.746L197.712 314.635L201.583 320.913C203.431 320.355 205.219 319.611 206.917 318.691L205.213 311.542L205.787 311.116C207.344 309.997 208.74 308.67 209.936 307.171C210.098 306.951 210.342 306.804 210.612 306.762C210.883 306.72 211.159 306.787 211.38 306.949C211.494 307.03 211.591 307.132 211.664 307.251C211.738 307.369 211.788 307.501 211.81 307.639C211.832 307.777 211.827 307.918 211.795 308.054C211.762 308.189 211.703 308.317 211.621 308.43C210.441 309.916 209.085 311.253 207.584 312.412L209.436 319.821L208.75 320.21C206.466 321.542 204.011 322.557 201.453 323.229L200.601 323.358ZM176.413 309.301L175.45 308.134L168.041 309.875L167.652 309.208C166.347 306.912 165.357 304.452 164.707 301.892L164.504 301.133L170.93 297.188C170.634 295.193 170.634 293.164 170.93 291.169L164.504 287.224L164.707 286.464C165.379 283.906 166.394 281.452 167.726 279.167L168.115 278.482L175.524 280.334C176.715 278.712 178.102 277.244 179.654 275.963L178.339 270.407C178.306 270.273 178.3 270.134 178.321 269.998C178.343 269.861 178.391 269.731 178.464 269.614C178.536 269.496 178.631 269.395 178.743 269.315C178.855 269.235 178.982 269.178 179.117 269.147C179.387 269.086 179.67 269.133 179.906 269.278C180.141 269.424 180.31 269.656 180.376 269.925L182.043 276.833L181.45 277.259C179.615 278.576 178.007 280.184 176.69 282.019L176.264 282.593L169.115 280.89C168.196 282.588 167.451 284.375 166.893 286.224L173.171 290.076L173.06 290.78C172.869 291.893 172.77 293.021 172.764 294.151C172.77 295.287 172.869 296.42 173.06 297.54L173.171 298.225L166.893 302.078C167.447 303.934 168.192 305.727 169.115 307.43L176.264 305.708L176.69 306.282C177.073 306.83 177.487 307.356 177.931 307.856C178.114 308.049 178.215 308.304 178.215 308.569C178.215 308.834 178.114 309.09 177.931 309.282C177.836 309.388 177.719 309.472 177.589 309.531C177.459 309.589 177.319 309.62 177.176 309.622C177.034 309.624 176.892 309.596 176.761 309.541C176.63 309.486 176.511 309.404 176.413 309.301ZM219.178 309.875L216.474 309.245C216.338 309.213 216.211 309.154 216.099 309.072C215.987 308.99 215.892 308.887 215.819 308.768C215.747 308.649 215.699 308.517 215.678 308.38C215.656 308.242 215.663 308.102 215.696 307.967C215.726 307.833 215.783 307.706 215.863 307.594C215.943 307.482 216.045 307.386 216.162 307.314C216.279 307.242 216.41 307.193 216.546 307.172C216.682 307.15 216.821 307.156 216.955 307.189L218.122 307.467C219.053 305.768 219.798 303.973 220.345 302.115L214.066 298.262L214.177 297.577C214.368 296.457 214.467 295.324 214.473 294.188C214.467 293.058 214.368 291.93 214.177 290.817L214.066 290.113L220.345 286.261C219.794 284.409 219.049 282.621 218.122 280.927L210.973 282.631L210.547 282.056C209.23 280.221 207.622 278.613 205.787 277.296L205.213 276.87L206.917 269.721C205.222 268.794 203.434 268.049 201.583 267.499L197.712 273.777L197.027 273.666C194.788 273.296 192.505 273.296 190.266 273.666L189.581 273.777L185.729 267.499L185.006 267.721C184.748 267.804 184.468 267.782 184.226 267.661C183.984 267.54 183.799 267.329 183.71 267.073C183.66 266.943 183.637 266.804 183.642 266.665C183.647 266.526 183.679 266.389 183.738 266.263C183.797 266.137 183.88 266.024 183.984 265.931C184.087 265.838 184.208 265.766 184.34 265.721L185.932 265.239L186.692 265.054L190.637 271.481C192.632 271.184 194.661 271.184 196.656 271.481L200.601 265.054L201.36 265.239C203.916 265.925 206.37 266.947 208.658 268.277L209.343 268.666L207.491 276.074C209.086 277.308 210.517 278.739 211.751 280.334L219.159 278.482L219.548 279.167C220.88 281.452 221.896 283.906 222.567 286.464L222.771 287.224L216.344 291.169C216.64 293.164 216.64 295.193 216.344 297.188L222.771 301.133L222.567 301.892C221.892 304.449 220.877 306.904 219.548 309.19L219.178 309.875ZM193.359 304.448C190.843 304.276 188.478 303.182 186.716 301.376C184.955 299.57 183.921 297.179 183.811 294.659C183.701 292.139 184.523 289.666 186.12 287.714C187.718 285.762 189.978 284.466 192.47 284.075C192.619 284.06 192.769 284.075 192.911 284.121C193.053 284.167 193.184 284.242 193.296 284.341C193.408 284.441 193.497 284.562 193.559 284.698C193.621 284.834 193.654 284.981 193.656 285.131C193.657 285.388 193.563 285.636 193.392 285.828C193.221 286.019 192.985 286.14 192.73 286.168C191.167 286.347 189.69 286.974 188.476 287.973C187.262 288.972 186.363 290.301 185.888 291.8C185.413 293.299 185.381 294.903 185.797 296.42C186.212 297.936 187.058 299.3 188.232 300.346C189.405 301.393 190.856 302.078 192.41 302.318C193.964 302.558 195.554 302.344 196.989 301.701C198.424 301.058 199.642 300.013 200.497 298.693C201.351 297.373 201.806 295.834 201.805 294.262C201.809 292.59 201.291 290.958 200.323 289.594C200.182 289.384 200.121 289.13 200.152 288.878C200.182 288.626 200.302 288.394 200.49 288.224C200.602 288.124 200.733 288.048 200.876 288.003C201.019 287.957 201.17 287.943 201.319 287.961C201.468 287.978 201.611 288.027 201.74 288.105C201.868 288.182 201.979 288.286 202.064 288.409C203.148 289.967 203.777 291.796 203.884 293.691C203.99 295.585 203.569 297.473 202.667 299.142C201.765 300.812 200.417 302.199 198.774 303.149C197.131 304.099 195.257 304.574 193.359 304.522V304.448Z" fill="#E6E6E6"/>
<path d="M463.025 689C661.353 689 822.129 679.613 822.129 668.034C822.129 656.455 661.353 647.068 463.025 647.068C264.698 647.068 103.921 656.455 103.921 668.034C103.921 679.613 264.698 689 463.025 689Z" fill="#F5F5F5"/>
<path d="M673.146 168.226H612.841L570.243 655.792H630.548C639.011 655.628 647.123 652.374 653.353 646.642C659.583 640.91 663.5 633.097 664.367 624.676L701.576 199.323C702.008 195.36 701.591 191.35 700.352 187.561C699.113 183.772 697.081 180.29 694.391 177.347C691.701 174.405 688.415 172.07 684.751 170.497C681.088 168.924 677.132 168.15 673.146 168.226Z" fill="#407BFF"/>
<path d="M660.848 168.226H456.747C448.282 168.385 440.169 171.635 433.935 177.363C427.702 183.091 423.78 190.902 422.909 199.323L385.7 624.677C385.271 628.637 385.69 632.643 386.928 636.429C388.165 640.215 390.194 643.695 392.879 646.638C395.564 649.58 398.844 651.918 402.501 653.496C406.159 655.074 410.11 655.857 414.093 655.792H618.176C626.629 655.611 634.724 652.349 640.942 646.619C647.159 640.89 651.07 633.087 651.939 624.677L689.148 199.323C689.579 195.371 689.165 191.373 687.934 187.592C686.702 183.812 684.682 180.337 682.006 177.397C679.33 174.457 676.06 172.119 672.413 170.538C668.765 168.957 664.823 168.169 660.848 168.226Z" fill="#407BFF"/>
<path opacity="0.3" d="M660.848 168.226H456.747C448.282 168.385 440.169 171.635 433.935 177.363C427.702 183.091 423.78 190.902 422.909 199.323L385.7 624.677C385.271 628.637 385.69 632.643 386.928 636.429C388.165 640.215 390.194 643.695 392.879 646.638C395.564 649.58 398.844 651.918 402.501 653.496C406.159 655.074 410.11 655.857 414.093 655.792H618.176C626.629 655.611 634.724 652.349 640.942 646.619C647.159 640.89 651.07 633.087 651.939 624.677L689.148 199.323C689.579 195.371 689.165 191.373 687.934 187.592C686.702 183.812 684.682 180.337 682.006 177.397C679.33 174.457 676.06 172.119 672.413 170.538C668.765 168.957 664.823 168.169 660.848 168.226Z" fill="white"/>
<path opacity="0.4" d="M659.978 178.191H606.155C604.551 178.204 602.987 178.698 601.667 179.609C600.346 180.52 599.329 181.807 598.747 183.302C596.624 188.795 592.913 193.531 588.087 196.906C583.261 200.281 577.539 202.141 571.651 202.249H539.906C534.361 202.361 528.95 200.536 524.606 197.087C520.262 193.639 517.256 188.784 516.106 183.358C515.8 181.89 514.99 180.575 513.816 179.642C512.642 178.708 511.179 178.214 509.68 178.246H455.876C450.123 178.348 444.607 180.555 440.372 184.449C436.136 188.343 433.475 193.655 432.891 199.379L395.664 624.732C395.366 627.425 395.646 630.151 396.485 632.728C397.323 635.304 398.702 637.672 400.528 639.674C402.355 641.675 404.587 643.265 407.076 644.335C409.565 645.406 412.254 645.934 414.963 645.883H619.065C624.819 645.777 630.335 643.566 634.57 639.669C638.805 635.772 641.466 630.458 642.049 624.732L679.258 199.379C679.561 196.684 679.286 193.956 678.451 191.376C677.616 188.796 676.24 186.424 674.415 184.419C672.59 182.413 670.358 180.82 667.869 179.746C665.379 178.672 662.689 178.142 659.978 178.191Z" fill="white"/>
<path d="M609.119 409.314H466.285C465.303 409.33 464.329 409.138 463.428 408.749C462.526 408.36 461.718 407.784 461.056 407.059C460.394 406.334 459.893 405.476 459.588 404.543C459.282 403.61 459.179 402.623 459.284 401.647L460.006 393.46C460.219 391.385 461.184 389.459 462.719 388.046C464.255 386.633 466.255 385.832 468.341 385.793H611.193C612.175 385.776 613.149 385.969 614.05 386.358C614.952 386.747 615.761 387.323 616.423 388.048C617.085 388.773 617.585 389.631 617.89 390.564C618.196 391.497 618.299 392.484 618.194 393.46L617.49 401.647C617.273 403.727 616.302 405.656 614.759 407.069C613.217 408.481 611.21 409.28 609.119 409.314Z" fill="white"/>
<path d="M606.044 444.504H463.192C462.211 444.521 461.238 444.328 460.337 443.939C459.436 443.55 458.629 442.974 457.968 442.248C457.307 441.523 456.809 440.665 456.506 439.732C456.202 438.799 456.101 437.812 456.209 436.836L456.913 428.65C457.129 426.576 458.096 424.652 459.63 423.24C461.165 421.828 463.163 421.025 465.248 420.982H608.1C609.082 420.966 610.056 421.159 610.957 421.548C611.859 421.937 612.667 422.513 613.329 423.238C613.992 423.963 614.492 424.82 614.797 425.753C615.103 426.687 615.206 427.674 615.101 428.65L614.379 436.836C614.163 438.911 613.196 440.834 611.662 442.246C610.127 443.658 608.129 444.461 606.044 444.504Z" fill="white"/>
<path opacity="0.1" d="M565.724 186.155C565.489 188.46 564.416 190.598 562.709 192.165C561.002 193.732 558.78 194.618 556.464 194.656C555.375 194.675 554.294 194.463 553.294 194.032C552.294 193.602 551.397 192.963 550.662 192.159C549.928 191.355 549.374 190.403 549.036 189.368C548.698 188.333 548.585 187.237 548.703 186.155C548.939 183.85 550.012 181.711 551.718 180.145C553.425 178.578 555.647 177.691 557.964 177.654C559.053 177.634 560.133 177.846 561.133 178.277C562.134 178.708 563.031 179.346 563.765 180.15C564.499 180.955 565.054 181.906 565.391 182.941C565.729 183.977 565.843 185.072 565.724 186.155Z" fill="black"/>
<path opacity="0.1" d="M561.872 186.155C561.741 187.413 561.155 188.58 560.223 189.436C559.292 190.292 558.08 190.779 556.815 190.803C556.22 190.815 555.629 190.699 555.081 190.464C554.534 190.229 554.043 189.88 553.642 189.44C553.24 189 552.937 188.479 552.753 187.912C552.569 187.346 552.508 186.747 552.574 186.155C552.701 184.895 553.286 183.726 554.218 182.869C555.15 182.012 556.364 181.527 557.63 181.506C558.225 181.497 558.815 181.615 559.361 181.851C559.906 182.087 560.396 182.437 560.797 182.876C561.198 183.315 561.501 183.835 561.686 184.4C561.871 184.965 561.935 185.563 561.872 186.155Z" fill="black"/>
<g opacity="0.8">
<path d="M634.845 200.342C634.525 200.346 634.208 200.283 633.915 200.155C633.621 200.028 633.358 199.84 633.143 199.604C632.928 199.368 632.765 199.088 632.666 198.784C632.566 198.481 632.532 198.159 632.567 197.841L632.974 193.285C633.042 192.612 633.355 191.987 633.854 191.529C634.352 191.072 635.002 190.813 635.678 190.803C635.996 190.799 636.311 190.862 636.603 190.988C636.895 191.114 637.157 191.3 637.372 191.535C637.587 191.769 637.75 192.046 637.851 192.348C637.952 192.649 637.988 192.969 637.956 193.285L637.549 197.841C637.481 198.516 637.169 199.143 636.671 199.604C636.172 200.064 635.523 200.327 634.845 200.342Z" fill="white"/>
<path d="M654.773 200.342C654.454 200.346 654.137 200.283 653.843 200.155C653.55 200.028 653.287 199.84 653.072 199.604C652.856 199.368 652.694 199.088 652.594 198.785C652.495 198.481 652.461 198.159 652.495 197.841L653.44 187.155C653.508 186.481 653.821 185.857 654.32 185.399C654.818 184.941 655.467 184.683 656.144 184.673C656.462 184.669 656.777 184.732 657.069 184.858C657.361 184.984 657.623 185.17 657.838 185.404C658.053 185.639 658.216 185.915 658.317 186.217C658.417 186.519 658.453 186.838 658.422 187.155L657.477 197.841C657.41 198.516 657.097 199.143 656.599 199.604C656.101 200.064 655.452 200.327 654.773 200.342Z" fill="white"/>
<path d="M644.809 200.342C644.489 200.346 644.172 200.283 643.879 200.156C643.586 200.028 643.323 199.84 643.107 199.604C642.892 199.368 642.729 199.088 642.63 198.785C642.531 198.481 642.497 198.159 642.531 197.841L643.198 190.229C643.266 189.551 643.581 188.922 644.083 188.461C644.585 188 645.239 187.739 645.92 187.729C646.239 187.724 646.556 187.787 646.848 187.915C647.141 188.042 647.403 188.23 647.617 188.467C647.83 188.704 647.991 188.983 648.089 189.287C648.186 189.591 648.217 189.912 648.18 190.229L647.513 197.841C647.445 198.516 647.133 199.143 646.635 199.604C646.137 200.065 645.487 200.327 644.809 200.342Z" fill="white"/>
</g>
<g opacity="0.8">
<path d="M464.21 200.342H451.69C451.51 200.346 451.331 200.311 451.166 200.24C451 200.168 450.852 200.063 450.731 199.929C450.609 199.796 450.518 199.638 450.463 199.466C450.409 199.294 450.391 199.113 450.412 198.934L450.986 192.211C451.027 191.829 451.206 191.476 451.489 191.216C451.772 190.957 452.14 190.81 452.524 190.803H465.044C465.224 190.799 465.403 190.834 465.569 190.905C465.734 190.977 465.883 191.082 466.004 191.216C466.125 191.349 466.216 191.507 466.271 191.679C466.326 191.851 466.343 192.032 466.322 192.211L465.729 198.934C465.697 199.316 465.523 199.672 465.242 199.932C464.961 200.192 464.593 200.338 464.21 200.342Z" fill="white"/>
<path d="M470.007 198.508C469.827 198.512 469.647 198.477 469.481 198.406C469.314 198.335 469.165 198.229 469.042 198.096C468.92 197.963 468.827 197.805 468.77 197.634C468.713 197.462 468.693 197.28 468.711 197.1L468.989 194.026C469.025 193.643 469.203 193.287 469.487 193.027C469.771 192.767 470.141 192.621 470.526 192.618C470.706 192.614 470.885 192.649 471.051 192.72C471.216 192.792 471.365 192.897 471.486 193.031C471.607 193.164 471.698 193.322 471.753 193.494C471.808 193.666 471.825 193.847 471.804 194.026L471.545 197.1C471.504 197.482 471.325 197.836 471.042 198.095C470.759 198.354 470.391 198.501 470.007 198.508Z" fill="white"/>
</g>
<path d="M585.583 355.475C610.506 331.616 612.992 293.766 591.135 270.934C569.278 248.102 531.356 248.935 506.433 272.793C481.51 296.652 479.024 334.502 500.881 357.334C522.738 380.166 560.66 379.333 585.583 355.475Z" fill="white"/>
<path d="M546.222 311.857C530.516 311.857 517.236 317.839 516.106 330.822L514.847 345.25H571.762L573.021 330.822C574.151 317.839 561.946 311.857 546.222 311.857Z" fill="#407BFF"/>
<path d="M546.74 305.911C554.037 305.911 557.408 300.003 558.038 292.706C558.668 285.409 556.352 279.501 549.055 279.501C541.758 279.501 538.406 285.427 537.757 292.706C537.109 299.985 539.443 305.911 546.74 305.911Z" fill="#407BFF"/>
<path d="M602.599 397.053C598.729 397.053 595.45 398.535 595.191 401.739L594.876 405.314H608.934L609.249 401.739C609.508 398.535 606.489 397.053 602.599 397.053Z" fill="#407BFF"/>
<path d="M602.729 395.59C604.581 395.59 605.359 394.127 605.526 392.33C605.692 390.534 605.1 389.071 603.303 389.071C601.506 389.071 600.673 390.534 600.506 392.33C600.34 394.127 600.932 395.59 602.729 395.59Z" fill="#407BFF"/>
<path d="M559.334 479.694H503.771C502.265 479.721 500.769 479.428 499.385 478.832C498.001 478.237 496.759 477.353 495.743 476.24C494.727 475.128 493.959 473.812 493.491 472.379C493.023 470.947 492.866 469.431 493.029 467.933C493.359 464.748 494.842 461.794 497.2 459.628C499.557 457.461 502.626 456.232 505.827 456.172H561.39C562.896 456.148 564.39 456.444 565.772 457.041C567.155 457.637 568.395 458.52 569.411 459.632C570.427 460.744 571.195 462.059 571.664 463.49C572.133 464.921 572.293 466.436 572.132 467.933C571.807 471.12 570.324 474.076 567.966 476.243C565.608 478.411 562.537 479.638 559.334 479.694Z" fill="#407BFF"/>
<path d="M552.611 610.86H493.14C491.545 610.903 489.959 610.602 488.49 609.977C487.021 609.353 485.704 608.419 484.629 607.24C483.553 606.061 482.745 604.664 482.257 603.144C481.77 601.624 481.616 600.017 481.805 598.432L485.602 555.056C485.942 551.691 487.504 548.567 489.992 546.277C492.48 543.987 495.722 542.688 499.104 542.628H558.593C560.185 542.6 561.763 542.912 563.225 543.542C564.686 544.171 565.997 545.105 567.069 546.281C568.141 547.457 568.951 548.847 569.444 550.36C569.937 551.873 570.102 553.474 569.928 555.056L566.132 598.432C565.784 601.797 564.217 604.919 561.726 607.208C559.236 609.497 555.993 610.796 552.611 610.86Z" fill="#407BFF"/>
<g opacity="0.6">
<path d="M534.275 566.002C534.373 565.055 534.268 564.099 533.968 563.196C533.668 562.293 533.179 561.464 532.535 560.764C531.891 560.063 531.105 559.508 530.23 559.134C529.355 558.76 528.411 558.575 527.46 558.594C525.434 558.623 523.488 559.392 521.99 560.757C520.493 562.122 519.546 563.987 519.329 566.002C519.211 567.129 519.378 568.267 519.815 569.312C520.252 570.358 520.945 571.276 521.829 571.984L520.533 586.931C520.469 587.497 520.528 588.07 520.704 588.612C520.88 589.154 521.169 589.652 521.553 590.073C521.937 590.493 522.407 590.827 522.93 591.052C523.454 591.277 524.019 591.387 524.589 591.376C525.796 591.35 526.952 590.884 527.839 590.065C528.726 589.247 529.283 588.132 529.404 586.931L530.719 571.984C531.712 571.306 532.544 570.419 533.158 569.386C533.772 568.353 534.154 567.198 534.275 566.002Z" fill="white"/>
</g>
<path d="M559.112 551.667H551.444L553.297 530.201C553.62 527.222 553.306 524.208 552.376 521.359C551.445 518.511 549.92 515.892 547.9 513.678C545.881 511.464 543.413 509.705 540.662 508.518C537.911 507.33 534.938 506.741 531.942 506.79C525.574 506.915 519.471 509.364 514.784 513.676C510.097 517.988 507.148 523.865 506.494 530.201L504.642 551.667H496.974L498.826 530.201C499.689 521.793 503.599 513.992 509.82 508.27C516.04 502.548 524.14 499.301 532.59 499.141C536.567 499.073 540.513 499.852 544.166 501.427C547.819 503.001 551.095 505.334 553.777 508.272C556.459 511.21 558.485 514.684 559.721 518.465C560.957 522.246 561.375 526.246 560.946 530.201L559.112 551.667Z" fill="#407BFF"/>
<path d="M603.544 429.928L603.785 427.835C603.834 427.35 603.781 426.86 603.628 426.397C603.475 425.934 603.226 425.509 602.897 425.148C602.569 424.788 602.168 424.502 601.72 424.307C601.273 424.113 600.79 424.015 600.303 424.02C599.265 424.041 598.271 424.441 597.507 425.143C596.743 425.846 596.262 426.803 596.154 427.835L595.969 429.891C595.554 429.903 595.158 430.065 594.854 430.348C594.551 430.631 594.361 431.015 594.32 431.428L593.839 436.985C593.815 437.179 593.833 437.376 593.892 437.562C593.951 437.749 594.051 437.92 594.183 438.065C594.315 438.209 594.477 438.323 594.657 438.399C594.838 438.475 595.032 438.51 595.228 438.503H602.859C603.272 438.496 603.668 438.338 603.972 438.058C604.276 437.778 604.466 437.396 604.507 436.985L604.988 431.428C605.004 431.232 604.978 431.035 604.912 430.849C604.846 430.664 604.741 430.494 604.604 430.352C604.468 430.21 604.303 430.099 604.12 430.026C603.937 429.953 603.741 429.92 603.544 429.928ZM600.08 425.002C600.448 424.997 600.812 425.07 601.149 425.216C601.487 425.362 601.789 425.578 602.037 425.849C602.286 426.12 602.474 426.44 602.59 426.789C602.706 427.137 602.747 427.507 602.71 427.872L602.525 429.928H596.784L596.969 427.872C597.05 427.097 597.41 426.378 597.983 425.85C598.556 425.321 599.301 425.02 600.08 425.002Z" fill="#407BFF"/>
<path d="M488.677 432.132L486.01 431.576C485.935 431.561 485.865 431.529 485.805 431.483C485.745 431.437 485.696 431.378 485.662 431.31C485.629 431.242 485.611 431.168 485.61 431.092C485.609 431.016 485.625 430.941 485.658 430.873L486.769 428.243C486.815 428.129 486.82 428.003 486.782 427.886C486.743 427.77 486.665 427.67 486.561 427.606C486.457 427.541 486.333 427.516 486.211 427.534C486.09 427.553 485.979 427.613 485.898 427.706L483.88 429.78C483.831 429.842 483.769 429.891 483.699 429.926C483.628 429.96 483.551 429.978 483.472 429.978C483.394 429.978 483.316 429.96 483.246 429.926C483.175 429.891 483.113 429.842 483.065 429.78L481.416 427.706C481.064 427.261 480.305 427.706 480.435 428.243L481.083 430.873C481.102 430.949 481.105 431.029 481.091 431.107C481.078 431.185 481.049 431.26 481.005 431.326C480.962 431.392 480.905 431.448 480.839 431.491C480.772 431.534 480.698 431.563 480.62 431.576L477.86 432.132C477.268 432.243 477.194 433.077 477.768 433.188L480.435 433.743C480.509 433.758 480.58 433.789 480.64 433.835C480.7 433.882 480.748 433.942 480.781 434.01C480.813 434.079 480.829 434.154 480.827 434.23C480.825 434.306 480.804 434.381 480.768 434.447L479.694 437.096C479.648 437.209 479.643 437.336 479.681 437.452C479.719 437.569 479.798 437.668 479.902 437.733C480.006 437.797 480.13 437.822 480.251 437.804C480.373 437.786 480.484 437.725 480.564 437.633L482.583 435.558C482.635 435.502 482.698 435.458 482.768 435.427C482.838 435.396 482.914 435.381 482.991 435.381C483.067 435.381 483.143 435.396 483.213 435.427C483.283 435.458 483.346 435.502 483.398 435.558L485.047 437.633C485.398 438.077 486.158 437.633 486.01 437.096L485.361 434.466C485.334 434.309 485.369 434.147 485.459 434.016C485.549 433.885 485.687 433.793 485.843 433.762L488.603 433.206C489.177 433.077 489.251 432.243 488.677 432.132Z" fill="#263238"/>
<path d="M506.197 432.132L503.53 431.576C503.456 431.561 503.386 431.529 503.326 431.483C503.266 431.437 503.217 431.378 503.183 431.31C503.149 431.242 503.131 431.168 503.13 431.092C503.13 431.016 503.146 430.941 503.178 430.873L504.29 428.243C504.336 428.129 504.34 428.003 504.302 427.886C504.264 427.77 504.186 427.67 504.082 427.606C503.977 427.541 503.853 427.516 503.732 427.534C503.611 427.553 503.5 427.613 503.419 427.706L501.4 429.78C501.352 429.842 501.29 429.891 501.219 429.926C501.149 429.96 501.071 429.978 500.993 429.978C500.915 429.978 500.837 429.96 500.766 429.926C500.696 429.891 500.634 429.842 500.585 429.78L498.937 427.706C498.585 427.261 497.826 427.706 497.974 428.243L498.622 430.873C498.638 430.951 498.638 431.031 498.623 431.109C498.607 431.187 498.576 431.261 498.531 431.327C498.486 431.392 498.428 431.448 498.361 431.491C498.294 431.534 498.219 431.563 498.141 431.576L495.381 432.132C494.788 432.243 494.714 433.077 495.289 433.188L497.955 433.743C498.03 433.759 498.1 433.79 498.16 433.837C498.22 433.883 498.269 433.942 498.303 434.01C498.337 434.077 498.355 434.152 498.355 434.228C498.356 434.304 498.34 434.379 498.307 434.447L497.196 437.077C497.15 437.191 497.145 437.317 497.184 437.434C497.222 437.55 497.3 437.65 497.404 437.714C497.509 437.778 497.632 437.804 497.754 437.785C497.875 437.767 497.986 437.707 498.067 437.614L500.085 435.54C500.137 435.484 500.2 435.439 500.271 435.408C500.341 435.378 500.416 435.362 500.493 435.362C500.569 435.362 500.645 435.378 500.715 435.408C500.785 435.439 500.848 435.484 500.9 435.54L502.549 437.614C502.901 438.059 503.66 437.614 503.53 437.077L502.882 434.447C502.866 434.371 502.865 434.291 502.88 434.214C502.894 434.137 502.924 434.064 502.967 433.999C503.01 433.933 503.065 433.877 503.13 433.833C503.195 433.789 503.268 433.759 503.345 433.743L506.105 433.188C506.697 433.077 506.772 432.243 506.197 432.132Z" fill="#263238"/>
<path d="M523.719 432.132L521.07 431.576C520.994 431.565 520.922 431.535 520.859 431.49C520.797 431.444 520.746 431.385 520.712 431.316C520.677 431.247 520.66 431.171 520.661 431.093C520.662 431.016 520.682 430.941 520.718 430.873L521.829 428.243C521.901 428.125 521.922 427.983 521.889 427.85C521.856 427.716 521.771 427.601 521.654 427.53C521.536 427.458 521.394 427.437 521.261 427.47C521.127 427.503 521.012 427.588 520.94 427.706L518.94 429.78C518.89 429.842 518.826 429.892 518.754 429.926C518.682 429.96 518.603 429.978 518.523 429.978C518.444 429.978 518.365 429.96 518.293 429.926C518.221 429.892 518.157 429.842 518.107 429.78L516.458 427.706C516.107 427.261 515.347 427.706 515.495 428.243L516.144 430.873C516.16 430.949 516.161 431.028 516.146 431.105C516.132 431.182 516.102 431.256 516.059 431.321C516.016 431.387 515.96 431.443 515.895 431.487C515.83 431.531 515.757 431.561 515.681 431.576L512.921 432.132C512.328 432.243 512.254 433.077 512.828 433.188L515.477 433.743C515.551 433.759 515.621 433.79 515.681 433.837C515.741 433.883 515.79 433.942 515.824 434.01C515.858 434.078 515.876 434.152 515.877 434.228C515.878 434.304 515.861 434.379 515.829 434.447L514.717 437.077C514.646 437.195 514.625 437.336 514.658 437.47C514.691 437.604 514.775 437.719 514.893 437.79C515.011 437.862 515.153 437.883 515.286 437.85C515.42 437.817 515.535 437.732 515.606 437.614L517.607 435.54C517.659 435.484 517.722 435.439 517.792 435.409C517.862 435.378 517.938 435.362 518.014 435.362C518.091 435.362 518.166 435.378 518.236 435.409C518.307 435.439 518.37 435.484 518.422 435.54L520.089 437.614C520.44 438.059 521.2 437.614 521.052 437.077L520.403 434.447C520.376 434.293 520.408 434.134 520.494 434.003C520.58 433.872 520.714 433.779 520.866 433.743L523.626 433.188C524.145 433.077 524.293 432.243 523.719 432.132Z" fill="#263238"/>
<path d="M541.258 432.132L538.591 431.576C538.516 431.561 538.447 431.529 538.386 431.483C538.326 431.437 538.277 431.378 538.244 431.31C538.21 431.242 538.192 431.168 538.191 431.092C538.19 431.016 538.206 430.941 538.239 430.873L539.35 428.243C539.396 428.129 539.401 428.003 539.363 427.886C539.325 427.77 539.246 427.67 539.142 427.606C539.038 427.541 538.914 427.516 538.793 427.534C538.671 427.553 538.56 427.613 538.48 427.706L536.461 429.78C536.412 429.842 536.35 429.891 536.28 429.926C536.209 429.96 536.132 429.978 536.053 429.978C535.975 429.978 535.897 429.96 535.827 429.926C535.756 429.891 535.694 429.842 535.646 429.78L533.998 427.706C533.646 427.261 532.886 427.706 533.016 428.243L533.664 430.873C533.683 430.949 533.686 431.029 533.673 431.107C533.659 431.185 533.63 431.26 533.586 431.326C533.543 431.392 533.486 431.448 533.42 431.491C533.354 431.534 533.279 431.563 533.201 431.576L530.441 432.132C529.849 432.243 529.775 433.077 530.441 433.188L533.108 433.743C533.183 433.758 533.253 433.789 533.313 433.835C533.374 433.882 533.422 433.942 533.454 434.01C533.487 434.079 533.503 434.154 533.5 434.23C533.498 434.306 533.478 434.381 533.442 434.447L532.349 437.077C532.303 437.191 532.298 437.317 532.337 437.434C532.375 437.55 532.453 437.65 532.557 437.714C532.662 437.778 532.785 437.804 532.907 437.785C533.028 437.767 533.139 437.707 533.22 437.614L535.238 435.54C535.29 435.484 535.353 435.439 535.424 435.408C535.494 435.378 535.569 435.362 535.646 435.362C535.722 435.362 535.798 435.378 535.868 435.408C535.938 435.439 536.001 435.484 536.053 435.54L537.702 437.614C538.054 438.059 538.813 437.614 538.665 437.077L538.017 434.447C537.989 434.29 538.024 434.129 538.114 433.997C538.204 433.866 538.342 433.775 538.498 433.743L541.258 433.188C541.758 433.077 541.832 432.243 541.258 432.132Z" fill="#263238"/>
<path d="M558.779 432.132L556.112 431.576C556.037 431.561 555.968 431.529 555.907 431.483C555.847 431.437 555.798 431.378 555.765 431.31C555.731 431.242 555.713 431.168 555.712 431.092C555.711 431.016 555.727 430.941 555.76 430.873L556.871 428.243C556.917 428.129 556.922 428.003 556.884 427.886C556.846 427.77 556.767 427.67 556.663 427.606C556.559 427.541 556.435 427.516 556.314 427.534C556.192 427.553 556.081 427.613 556.001 427.706L553.982 429.78C553.933 429.842 553.871 429.891 553.801 429.926C553.73 429.96 553.653 429.978 553.574 429.978C553.496 429.978 553.418 429.96 553.348 429.926C553.277 429.891 553.215 429.842 553.167 429.78L551.518 427.706C551.167 427.261 550.407 427.706 550.555 428.243L551.204 430.873C551.22 430.951 551.22 431.031 551.204 431.109C551.188 431.187 551.157 431.261 551.112 431.327C551.067 431.392 551.01 431.448 550.943 431.491C550.876 431.534 550.801 431.563 550.722 431.576L547.962 432.132C547.37 432.243 547.296 433.077 547.87 433.188L550.537 433.743C550.611 433.759 550.681 433.79 550.741 433.837C550.801 433.883 550.85 433.942 550.884 434.01C550.918 434.077 550.936 434.152 550.937 434.228C550.938 434.304 550.921 434.379 550.889 434.447L549.777 437.077C549.731 437.191 549.727 437.317 549.765 437.434C549.803 437.55 549.881 437.65 549.986 437.714C550.09 437.778 550.214 437.804 550.335 437.785C550.456 437.767 550.567 437.707 550.648 437.614L552.667 435.54C552.719 435.484 552.782 435.439 552.852 435.408C552.922 435.378 552.998 435.362 553.074 435.362C553.151 435.362 553.226 435.378 553.297 435.408C553.367 435.439 553.43 435.484 553.482 435.54L555.13 437.614C555.482 438.059 556.241 437.614 556.112 437.077L555.463 434.447C555.447 434.371 555.446 434.291 555.461 434.214C555.475 434.137 555.505 434.064 555.548 433.999C555.591 433.933 555.647 433.877 555.712 433.833C555.777 433.789 555.85 433.759 555.926 433.743L558.686 433.188C559.334 433.077 559.334 432.243 558.779 432.132Z" fill="#263238"/>
<path d="M576.299 432.132L573.632 431.576C573.558 431.562 573.488 431.531 573.428 431.484C573.367 431.438 573.319 431.378 573.287 431.309C573.254 431.241 573.238 431.165 573.24 431.09C573.243 431.014 573.263 430.939 573.299 430.873L574.41 428.243C574.446 428.184 574.469 428.12 574.479 428.052C574.49 427.985 574.486 427.916 574.47 427.85C574.454 427.784 574.424 427.721 574.384 427.666C574.344 427.611 574.293 427.565 574.234 427.53C574.176 427.494 574.111 427.471 574.044 427.461C573.976 427.45 573.908 427.454 573.841 427.47C573.775 427.486 573.713 427.515 573.658 427.556C573.603 427.596 573.557 427.647 573.521 427.706L571.521 429.78C571.471 429.842 571.407 429.892 571.335 429.926C571.263 429.96 571.184 429.978 571.104 429.978C571.025 429.978 570.946 429.96 570.874 429.926C570.801 429.892 570.738 429.842 570.688 429.78L569.039 427.706C568.687 427.261 567.928 427.706 568.076 428.243L568.724 430.873C568.741 430.949 568.741 431.028 568.727 431.105C568.712 431.182 568.683 431.256 568.64 431.321C568.597 431.387 568.541 431.443 568.476 431.487C568.411 431.531 568.338 431.561 568.261 431.576L565.502 432.132C564.909 432.243 564.835 433.077 565.409 433.188L568.058 433.743C568.132 433.759 568.202 433.79 568.262 433.837C568.322 433.883 568.371 433.942 568.405 434.01C568.439 434.078 568.457 434.152 568.458 434.228C568.458 434.304 568.442 434.379 568.41 434.447L567.298 437.077C567.227 437.195 567.206 437.336 567.239 437.47C567.272 437.604 567.356 437.719 567.474 437.79C567.592 437.862 567.733 437.883 567.867 437.85C568.001 437.817 568.116 437.732 568.187 437.614L570.188 435.54C570.24 435.484 570.303 435.439 570.373 435.409C570.443 435.378 570.518 435.362 570.595 435.362C570.671 435.362 570.747 435.378 570.817 435.409C570.887 435.439 570.95 435.484 571.002 435.54L572.651 437.614C572.737 437.711 572.854 437.776 572.982 437.798C573.11 437.821 573.241 437.799 573.355 437.736C573.469 437.674 573.559 437.575 573.609 437.455C573.659 437.335 573.668 437.202 573.632 437.077L572.984 434.447C572.956 434.293 572.989 434.134 573.075 434.003C573.161 433.872 573.295 433.779 573.447 433.743L576.207 433.188C576.8 433.077 576.874 432.243 576.299 432.132Z" fill="#263238"/>
<path d="M534.053 393.775H501.16C500.15 393.792 499.182 394.179 498.438 394.861C497.694 395.544 497.226 396.475 497.122 397.479C497.069 397.952 497.118 398.43 497.265 398.883C497.413 399.335 497.655 399.75 497.976 400.101C498.297 400.452 498.689 400.73 499.127 400.917C499.564 401.103 500.036 401.194 500.512 401.184H533.405C534.414 401.166 535.383 400.78 536.126 400.097C536.87 399.415 537.339 398.484 537.443 397.479C537.492 397.007 537.442 396.53 537.293 396.079C537.145 395.628 536.902 395.214 536.582 394.864C536.262 394.514 535.87 394.236 535.435 394.048C534.999 393.86 534.528 393.767 534.053 393.775Z" fill="#263238"/>
<path d="M567.465 393.775H548.37C547.362 393.793 546.397 394.18 545.656 394.863C544.915 395.546 544.45 396.477 544.351 397.479C544.298 397.95 544.346 398.427 544.492 398.878C544.639 399.329 544.879 399.743 545.198 400.094C545.517 400.445 545.907 400.723 546.342 400.911C546.778 401.099 547.248 401.192 547.722 401.184H566.743C567.75 401.166 568.716 400.779 569.457 400.096C570.198 399.413 570.662 398.482 570.762 397.479C570.814 397.015 570.767 396.544 570.626 396.098C570.484 395.653 570.25 395.242 569.939 394.893C569.628 394.543 569.247 394.263 568.821 394.071C568.395 393.878 567.933 393.777 567.465 393.775Z" fill="#263238"/>
<path d="M592.672 561.668C581.046 566.096 570.55 573.056 561.946 582.041C556.721 577.985 550.492 575.424 543.925 574.633L543.054 574.503L542.684 578.874L543.165 579.059C550.368 581.711 556.459 586.725 560.445 593.283L561.075 594.321L561.76 593.209C569.43 580.965 580.255 571.01 593.098 564.391L593.524 564.168L593.765 561.279L592.672 561.668Z" fill="#263238"/>
<path opacity="0.2" d="M427.168 197.008C424.808 201.129 423.356 205.707 422.908 210.436L395.331 525.7H480.675L497.826 459.969L492.177 394.22L509.327 328.489L503.771 262.758L520.922 197.008H427.168Z" fill="black"/>
<path d="M496.27 244.236L513.421 178.487H297.595L280.463 244.236L286.094 309.968L268.962 375.699L274.592 441.448L257.46 507.179H473.267L490.417 441.448L484.769 375.699L501.919 309.968L496.27 244.236Z" fill="#407BFF"/>
<path opacity="0.7" d="M496.27 244.236L513.421 178.487H297.595L280.463 244.236L286.094 309.968L268.962 375.699L274.592 441.448L257.46 507.179H473.267L490.417 441.448L484.769 375.699L501.919 309.968L496.27 244.236Z" fill="white"/>
<path opacity="0.5" d="M496.27 244.236H280.463L297.595 178.487H513.421L496.27 244.236Z" fill="white"/>
<path opacity="0.5" d="M484.768 375.699H268.962L286.094 309.968H501.919L484.768 375.699Z" fill="white"/>
<path opacity="0.5" d="M473.267 507.179H257.442L274.592 441.448H490.418L473.267 507.179Z" fill="white"/>
<path opacity="0.2" d="M467.396 271.703C465.181 272.343 462.885 272.655 460.58 272.629C457.455 272.768 454.344 272.131 451.523 270.777C451.013 270.475 450.431 270.315 449.838 270.314C449.294 270.322 448.76 270.462 448.282 270.722H448.171C447.344 271.186 446.46 271.541 445.541 271.777C443.468 272.324 441.332 272.592 439.188 272.574C438.54 272.574 437.91 272.574 437.336 272.574C435.673 272.467 434.027 272.175 432.428 271.703C432.193 271.633 431.951 271.59 431.706 271.574C431.298 271.54 430.889 271.592 430.502 271.725C430.116 271.857 429.761 272.069 429.46 272.345C429.159 272.622 428.918 272.958 428.754 273.332C428.589 273.706 428.503 274.11 428.502 274.518V276.519H344.49C342.947 276.519 341.418 276.823 339.993 277.414C338.567 278.006 337.271 278.872 336.181 279.964C335.09 281.057 334.226 282.353 333.637 283.78C333.048 285.207 332.746 286.736 332.748 288.28V300.114C332.743 301.66 333.043 303.19 333.631 304.619C334.219 306.048 335.083 307.347 336.174 308.441C337.265 309.536 338.561 310.404 339.988 310.996C341.415 311.589 342.945 311.894 344.49 311.894H439.929H440.559C441.578 312.746 442.652 313.598 443.8 314.468C444.948 315.339 446.578 316.543 448.078 317.617C448.59 317.987 449.206 318.187 449.838 318.187C450.47 318.187 451.086 317.987 451.597 317.617C463.599 308.912 471.304 302.911 471.304 286.427V274.574C471.31 274.1 471.202 273.631 470.991 273.207C470.779 272.783 470.47 272.415 470.087 272.134C469.705 271.854 469.262 271.668 468.794 271.593C468.326 271.518 467.846 271.556 467.396 271.703Z" fill="black"/>
<path d="M438.096 270.018H342.675C336.18 270.018 330.915 275.283 330.915 281.779V293.614C330.915 300.109 336.18 305.374 342.675 305.374H438.096C444.591 305.374 449.856 300.109 449.856 293.614V281.779C449.856 275.283 444.591 270.018 438.096 270.018Z" fill="#407BFF"/>
<path d="M458.747 266.11C455.622 266.244 452.512 265.608 449.69 264.258C449.188 263.95 448.611 263.787 448.023 263.787C447.435 263.787 446.858 263.95 446.356 264.258C443.529 265.61 440.412 266.246 437.281 266.11C434.976 266.134 432.68 265.822 430.465 265.184C430.019 265.034 429.543 264.992 429.078 265.063C428.612 265.133 428.17 265.313 427.788 265.588C427.406 265.863 427.096 266.226 426.881 266.645C426.667 267.064 426.556 267.528 426.557 267.999V279.852C426.557 296.355 434.262 302.355 446.263 311.06C446.775 311.431 447.391 311.63 448.023 311.63C448.655 311.63 449.271 311.431 449.782 311.06C461.784 302.355 469.489 296.355 469.489 279.852V267.999C469.487 267.528 469.373 267.063 469.157 266.644C468.94 266.225 468.628 265.864 468.244 265.589C467.861 265.314 467.418 265.134 466.952 265.064C466.486 264.993 466.01 265.034 465.562 265.184C463.348 265.824 461.052 266.136 458.747 266.11Z" fill="#407BFF"/>
<path opacity="0.3" d="M458.747 266.11C455.622 266.244 452.512 265.608 449.69 264.258C449.188 263.95 448.611 263.787 448.023 263.787C447.435 263.787 446.858 263.95 446.356 264.258C443.529 265.61 440.412 266.246 437.281 266.11C434.976 266.134 432.68 265.822 430.465 265.184C430.019 265.034 429.543 264.992 429.078 265.063C428.612 265.133 428.17 265.313 427.788 265.588C427.406 265.863 427.096 266.226 426.881 266.645C426.667 267.064 426.556 267.528 426.557 267.999V279.852C426.557 296.355 434.262 302.355 446.263 311.06C446.775 311.431 447.391 311.63 448.023 311.63C448.655 311.63 449.271 311.431 449.782 311.06C461.784 302.355 469.489 296.355 469.489 279.852V267.999C469.487 267.528 469.373 267.063 469.157 266.644C468.94 266.225 468.628 265.864 468.244 265.589C467.861 265.314 467.418 265.134 466.952 265.064C466.486 264.993 466.01 265.034 465.562 265.184C463.348 265.824 461.052 266.136 458.747 266.11Z" fill="white"/>
<path opacity="0.2" d="M446.356 264.221C443.529 265.573 440.412 266.209 437.281 266.073C434.976 266.096 432.68 265.784 430.465 265.147C430.019 264.997 429.543 264.955 429.078 265.025C428.612 265.096 428.17 265.276 427.788 265.551C427.406 265.826 427.096 266.188 426.881 266.608C426.667 267.027 426.556 267.491 426.557 267.962V279.815C426.557 296.318 434.262 302.318 446.263 311.023C446.801 311.413 447.452 311.615 448.116 311.597V263.739C447.495 263.727 446.884 263.894 446.356 264.221Z" fill="white"/>
<path d="M465.229 276.63C458.009 279.458 451.579 283.989 446.486 289.835C442.934 287.217 438.77 285.553 434.392 285.001H433.817V287.835L434.132 287.946C439.002 289.703 443.199 292.942 446.134 297.207L446.597 297.873L446.986 297.151C451.244 289.238 457.728 282.747 465.636 278.482L465.914 278.352V276.5L465.229 276.63Z" fill="#263238"/>
<path d="M509.605 196.989H501.419C500.366 197.009 499.321 196.804 498.353 196.387C497.385 195.971 496.518 195.353 495.808 194.575C495.098 193.797 494.562 192.876 494.236 191.874C493.91 190.873 493.802 189.813 493.918 188.766L494.64 180.58C494.862 178.353 495.894 176.286 497.54 174.77C499.185 173.254 501.33 172.395 503.567 172.357H511.754C512.808 172.334 513.856 172.538 514.825 172.953C515.795 173.368 516.665 173.985 517.377 174.764C518.089 175.542 518.626 176.464 518.953 177.467C519.28 178.47 519.389 179.531 519.273 180.58L518.551 188.766C518.302 190.985 517.259 193.039 515.615 194.55C513.972 196.061 511.837 196.927 509.605 196.989Z" fill="#407BFF"/>
<path d="M513.013 180.561L511.235 178.598L506.753 182.71L503.012 178.598L500.882 180.561L504.642 184.673L500.178 188.785L501.956 190.729L506.42 186.618L510.179 190.729L512.291 188.785L508.531 184.673L513.013 180.561Z" fill="white"/>
<path d="M326.655 267.61C331.396 272.777 335.915 278.13 340.416 283.52C344.917 288.909 349.269 294.41 353.603 299.929C353.788 300.17 353.714 300.077 353.751 300.151C353.788 300.225 353.751 300.244 353.751 300.262C353.783 300.331 353.827 300.394 353.881 300.448C354.039 300.672 354.239 300.863 354.471 301.009C354.703 301.155 354.962 301.254 355.233 301.3C355.442 301.328 355.654 301.328 355.862 301.3C355.973 301.308 356.085 301.308 356.196 301.3H356.363C356.455 301.3 356.363 301.3 356.659 301.189L361.289 298.67C367.512 295.373 373.791 292.15 380.273 289.261L385.7 295.984C380.477 300.781 375.032 306.8 369.531 311.208L365.382 314.468C365.125 314.679 364.852 314.87 364.567 315.042C364.253 315.266 363.925 315.47 363.586 315.653C362.915 316.04 362.223 316.386 361.511 316.691C360.076 317.294 358.57 317.711 357.029 317.932C353.913 318.389 350.733 318.071 347.769 317.006C346.261 316.47 344.829 315.742 343.509 314.839C342.842 314.394 342.212 313.875 341.657 313.375C341.342 313.116 341.083 312.82 340.786 312.542L340.046 311.801C335.137 306.763 330.303 301.689 325.562 296.521C320.821 291.354 316.135 286.15 311.653 280.741L326.655 267.61Z" fill="#B55B52"/>
<path d="M377.829 293.336L382.144 279.464L393.516 285.131C393.516 285.131 391.849 295.243 383.589 297.003L377.829 293.336Z" fill="#B55B52"/>
<path d="M386.682 275.63L396.942 278.445L393.497 285.131L382.125 279.463L386.682 275.63Z" fill="#B55B52"/>
<path d="M266.869 271.388C265.647 277.278 264.128 283.112 262.554 288.928C260.979 294.743 259.257 300.503 257.46 306.263L256.794 308.43L256.46 309.505C256.415 309.659 256.353 309.808 256.275 309.949C256.064 310.545 255.945 311.169 255.923 311.801C255.884 313.147 256.259 314.472 256.997 315.598C257.362 316.092 257.764 316.556 258.201 316.987L259.738 318.672L262.776 322.062C264.758 324.358 266.758 326.655 268.647 329.063L262.183 336.471C259.516 334.952 256.96 333.304 254.404 331.674L250.608 329.155L248.755 327.877C248.126 327.433 247.607 327.137 246.588 326.303C242.965 323.215 240.464 319.015 239.476 314.357C238.979 311.983 238.861 309.545 239.125 307.134C239.125 306.541 239.31 305.874 239.402 305.282L239.606 304.171L239.995 301.948C241.032 296.003 242.143 290.076 243.384 284.186C244.625 278.297 245.959 272.426 247.533 266.628L266.869 271.388Z" fill="#B55B52"/>
<path d="M262.313 328.47L269.944 324.562L273.314 337.527C273.314 337.527 267.184 339.879 262.443 336.86L262.313 328.47Z" fill="#B55B52"/>
<path d="M280.5 320.395L280.852 332.322L272.314 337.897L269.351 324.803L280.5 320.395Z" fill="#B55B52"/>
<path d="M305.486 210.158C305.671 211.065 306.319 211.713 306.912 211.602C307.504 211.491 307.856 210.639 307.671 209.75C307.486 208.861 306.838 208.195 306.245 208.306C305.652 208.417 305.3 209.287 305.486 210.158Z" fill="#263238"/>
<path d="M306.226 211.732C307.894 214.315 309.906 216.658 312.209 218.696C311.673 219.273 311.017 219.727 310.288 220.024C309.558 220.322 308.773 220.456 307.986 220.418L306.226 211.732Z" fill="#A02724"/>
<path d="M301.096 205.75C300.989 205.749 300.885 205.717 300.796 205.658C300.707 205.599 300.637 205.516 300.594 205.418C300.551 205.32 300.537 205.212 300.554 205.107C300.571 205.002 300.618 204.903 300.689 204.824C301.269 204.168 301.995 203.658 302.81 203.336C303.624 203.014 304.503 202.889 305.374 202.972C305.446 202.985 305.515 203.012 305.576 203.052C305.637 203.092 305.69 203.144 305.731 203.204C305.772 203.264 305.801 203.332 305.816 203.403C305.831 203.474 305.832 203.548 305.819 203.62C305.808 203.691 305.782 203.759 305.745 203.82C305.707 203.881 305.657 203.934 305.598 203.975C305.539 204.017 305.473 204.046 305.403 204.061C305.332 204.077 305.26 204.078 305.189 204.064C304.498 203.998 303.802 204.098 303.157 204.356C302.513 204.614 301.94 205.022 301.485 205.546C301.386 205.661 301.247 205.734 301.096 205.75Z" fill="#263238"/>
<path d="M278.778 223.067C280.815 231.568 282.871 247.144 275.574 252.793C275.574 252.793 278.426 261.424 297.799 261.424C319.098 261.424 307.986 255.868 307.986 255.868C296.355 253.608 296.651 243.514 298.725 236.902L278.778 223.067Z" fill="#B55B52"/>
<path d="M273.296 254.367C272.037 252.015 270.629 249.311 273.518 248.459C276.704 247.533 297.133 245.811 303.152 247.552C301.3 250.83 304.43 254.96 304.43 254.96L273.296 254.367Z" fill="#263238"/>
<path d="M290.224 651.791H303.578L304.911 624.899H291.539L290.224 651.791Z" fill="#B55B52"/>
<path d="M205.417 648.087L218.955 648.809L227.179 622.306L213.64 621.583L205.417 648.087Z" fill="#B55B52"/>
<path d="M218.548 647.735L205.787 644.976C205.563 644.925 205.329 644.952 205.124 645.053C204.918 645.154 204.753 645.323 204.657 645.531L200.231 655.144C200.122 655.377 200.068 655.632 200.073 655.89C200.078 656.147 200.142 656.4 200.26 656.629C200.378 656.858 200.547 657.057 200.753 657.21C200.96 657.364 201.2 657.468 201.453 657.514C205.916 658.403 208.139 658.607 213.751 659.829C217.196 660.57 224.993 662.478 229.753 663.534C234.513 664.589 236.161 659.996 234.309 659.144C225.975 655.347 222.493 651.995 220.233 648.865C219.828 648.296 219.228 647.894 218.548 647.735Z" fill="#263238"/>
<path d="M302.874 650.439H290.187C289.958 650.442 289.736 650.522 289.558 650.667C289.38 650.811 289.256 651.012 289.206 651.236L286.909 661.552C286.85 661.802 286.848 662.062 286.905 662.312C286.961 662.562 287.074 662.797 287.235 662.997C287.396 663.197 287.6 663.358 287.833 663.467C288.065 663.576 288.319 663.63 288.576 663.626C293.151 663.626 299.689 663.274 305.523 663.274C312.246 663.274 318.043 663.645 325.896 663.645C330.656 663.645 331.989 658.829 329.989 658.385C320.895 656.403 313.487 656.181 305.634 651.347C304.813 650.8 303.859 650.486 302.874 650.439Z" fill="#263238"/>
<path d="M251.367 256.72C241.292 261.516 238.551 290.594 238.551 290.594L263.498 302.115C267.715 295.002 270.013 286.916 270.166 278.648C270.666 263.628 261.683 251.886 251.367 256.72Z" fill="#263238"/>
<path opacity="0.4" d="M264.85 274.648C260.35 281.649 260.776 292.465 262.331 301.596L263.443 302.114C267.656 295 269.953 286.915 270.11 278.648C270.11 277.759 270.11 276.796 270.11 276L264.85 274.648Z" fill="black"/>
<path d="M320.987 256.016C320.987 256.016 333.359 269.981 321.673 356.4H259.572C259.146 346.861 265.128 300.355 255.867 255.423C262.731 254.103 269.672 253.224 276.648 252.793C285.445 252.293 294.262 252.293 303.059 252.793C309.109 253.406 315.103 254.483 320.987 256.016Z" fill="#407BFF"/>
<path opacity="0.6" d="M320.987 256.016C320.987 256.016 333.359 269.981 321.673 356.4H259.572C259.146 346.861 265.128 300.355 255.867 255.423C262.731 254.103 269.672 253.224 276.648 252.793C285.445 252.293 294.262 252.293 303.059 252.793C309.109 253.406 315.103 254.483 320.987 256.016Z" fill="#FAFAFA"/>
<path opacity="0.2" d="M326.414 282.427L326.192 282.223L313.839 275.63C312.579 294.651 321.08 306.578 326.137 311.783C326.77 302.01 326.863 292.21 326.414 282.427Z" fill="black"/>
<path opacity="0.2" d="M304.911 624.899L304.226 638.771H290.854L291.539 624.899H304.911Z" fill="black"/>
<path opacity="0.2" d="M213.64 621.602L227.179 622.306L222.937 635.974L209.398 635.252L213.64 621.602Z" fill="black"/>
<path d="M274.481 214.436C277.463 225.549 278.649 232.235 285.594 236.865C295.929 243.829 308.782 235.828 309.19 224.03C309.542 213.417 304.615 196.989 292.669 194.748C290.032 194.226 287.304 194.39 284.748 195.222C282.191 196.055 279.891 197.529 278.067 199.504C276.242 201.478 274.955 203.888 274.327 206.502C273.699 209.117 273.753 211.848 274.481 214.436Z" fill="#B55B52"/>
<path d="M299.651 356.4C299.651 356.4 286.464 445.134 279.278 478.397C271.314 514.884 228.827 635.27 228.827 635.27L208.028 630.77C208.028 630.77 234.68 532.608 241.366 481.713C243.959 461.84 247.089 429.854 251.052 403.128C254.886 377.199 259.609 356.418 259.609 356.418L299.651 356.4Z" fill="#263238"/>
<path d="M233.809 628.325L229.92 635.845L206.546 630.77L208.509 623.75L233.809 628.325Z" fill="#407BFF"/>
<path opacity="0.6" d="M233.809 628.325L229.92 635.845L206.546 630.77L208.509 623.75L233.809 628.325Z" fill="white"/>
<path opacity="0.6" d="M291.317 388.015C276.074 390.997 277.685 447.838 279.519 477.064C283.927 456.395 290.354 416.648 294.743 388.422C293.681 387.9 292.472 387.756 291.317 388.015Z" fill="black"/>
<path d="M321.673 356.4C321.673 356.4 327.877 443.226 326.618 478.638C325.303 515.477 307.838 636.067 307.838 636.067H288.168C288.168 636.067 287.446 517.532 286.576 481.435C285.612 441.985 280.853 356.381 280.853 356.381L321.673 356.4Z" fill="#263238"/>
<path d="M311.616 628.251C311.708 628.251 310.505 636.419 310.505 636.419H286.575L285.927 629.122L311.616 628.251Z" fill="#407BFF"/>
<path opacity="0.6" d="M311.616 628.251C311.708 628.251 310.505 636.419 310.505 636.419H286.575L285.927 629.122L311.616 628.251Z" fill="white"/>
<path d="M313.746 272.259C313.746 295.558 326.136 305.152 326.136 305.152L346.343 285.483C341.56 277.49 336.114 269.913 330.063 262.831C318.376 249.441 313.746 257.294 313.746 272.259Z" fill="#263238"/>
<path opacity="0.2" d="M308.412 228.253C308 229.421 307.308 230.47 306.398 231.309C305.488 232.148 304.386 232.752 303.189 233.068C301.872 233.337 300.676 234.022 299.779 235.023C298.882 236.024 298.331 237.286 298.207 238.625C300.605 237.823 302.779 236.465 304.553 234.663C306.326 232.86 307.649 230.664 308.412 228.253Z" fill="black"/>
<path d="M303.189 192.304C307.338 187.062 300.948 186.747 300.948 186.747C302.615 180.506 295.132 183.858 295.132 183.858C290.65 177.672 288.113 185.21 288.113 185.21C283.464 179.969 282.557 188.525 282.557 188.525C277.889 181.876 275.519 191.47 275.519 191.47C271.222 184.562 268.592 193.544 268.592 193.544C259.72 190.377 263.924 199.601 263.924 199.601C256.368 199.805 262.443 205.676 262.443 205.676C253.367 205.676 261.368 210.88 261.368 210.88C254.164 215.603 263.221 216.881 263.221 216.881C257.349 226.141 267.443 222.66 267.443 222.66C263.35 231.772 272.407 227.753 272.407 227.753C271.833 236.532 276.889 234.143 279.334 232.513C279.797 234.365 280.686 236.217 282.316 236.365C285.483 236.791 286.02 230.809 286.02 230.809C286.02 230.809 288.946 233.105 291.41 231.864C293.873 230.624 292.947 227.493 292.947 227.493C293.482 227.893 294.131 228.109 294.799 228.109C295.467 228.109 296.116 227.893 296.651 227.493C297.707 226.679 297.707 220.789 296.373 218.715L301.189 216.862C301.189 216.862 304.763 216.362 303.17 211.64C302.209 208.925 302.125 205.977 302.93 203.212C308.375 200.657 303.893 197.656 303.893 197.656C310.208 193.6 303.189 192.304 303.189 192.304Z" fill="#263238"/>
<path d="M293.428 214.844C294.182 217.607 295.83 220.043 298.114 221.771C301.133 224.03 303.393 221.771 303.171 218.381C302.985 215.307 301.17 210.436 297.836 209.51C294.503 208.584 292.632 211.565 293.428 214.844Z" fill="#B55B52"/>
</svg>
